<?xml version="1.0" encoding="UTF-8"?>
<!--Generator: Apple Native CoreSVG 341-->
<!DOCTYPE svg
PUBLIC "-//W3C//DTD SVG 1.1//EN"
       "http://www.w3.org/Graphics/SVG/1.1/DTD/svg11.dtd">
<svg version="1.1" xmlns="http://www.w3.org/2000/svg" xmlns:xlink="http://www.w3.org/1999/xlink" viewBox="0 0 858.985 677.138">
 <g>
  <path d="M667.831 185.005C691.035 184.532 710.48 165.176 710.48 142.075C710.48 118.309 691.035 98.6717 667.831 98.6717C644.538 98.6717 624.62 118.577 624.62 142.075C624.62 165.176 644.538 185.376 667.831 185.005ZM667.831 381.537C691.035 380.975 710.48 361.619 710.48 338.416C710.48 314.752 691.035 294.923 667.831 294.923C644.538 294.923 624.62 315.02 624.62 338.416C624.62 361.619 644.538 381.819 667.831 381.537ZM667.831 577.699C691.035 577.329 710.48 557.973 710.48 534.769C710.48 511.195 691.035 491.277 667.831 491.277C644.538 491.277 624.62 511.374 624.62 534.769C624.62 557.973 644.538 578.172 667.831 577.699ZM826.631 269.134L826.631 211.165L33.5041 211.165L33.5041 269.134ZM826.631 466.817L826.631 408.759L33.5041 408.759L33.5041 466.817ZM118.439 677.138L740.354 677.138C818.027 677.138 858.985 636.18 858.985 559.645L858.985 117.774C858.985 41.0472 818.027 0.178871 740.354 0.178871L118.439 0.178871C41.0472 0.178871 0 40.8554 0 117.774L0 559.645C0 636.564 41.0472 677.138 118.439 677.138ZM124.125 606.161C89.58 606.161 71.0669 588.479 71.0669 552.54L71.0669 124.777C71.0669 89.0304 89.58 71.1564 124.125 71.1564L734.77 71.1564C768.829 71.1564 787.726 89.0304 787.726 124.777L787.726 552.54C787.726 588.479 768.829 606.161 734.77 606.161Z" fill="black" fill-opacity="0.85"/>
 </g>
</svg>
